<svg width="118" height="58" viewBox="0 0 118 58" fill="none" xmlns="http://www.w3.org/2000/svg">
<path d="M18.996 42.9C18.18 42.516 17.772 41.94 17.772 41.172C17.772 40.932 17.808 40.692 17.88 40.452C18.072 39.588 18.42 38.352 18.924 36.744C19.452 35.136 19.92 33.924 20.328 33.108C20.496 32.82 20.628 32.52 20.724 32.208C20.82 31.896 20.88 31.692 20.904 31.596C21.024 31.164 21.096 30.912 21.12 30.84L21.084 30.48C21.084 30.384 21.108 30.288 21.156 30.192C21.204 30.096 21.288 29.988 21.408 29.868C21.744 29.58 22.104 29.016 22.488 28.176L23.856 24.252L24.288 23.028C24.312 22.932 24.36 22.764 24.432 22.524C24.504 22.284 24.54 22.116 24.54 22.02C24.54 21.924 24.516 21.876 24.468 21.876C24.276 21.924 23.892 21.96 23.316 21.984C23.028 22.032 22.812 22.068 22.668 22.092C22.524 22.092 22.416 22.104 22.344 22.128H22.092C21.636 22.128 21.408 21.96 21.408 21.624C21.48 21.192 21.624 20.784 21.84 20.4C22.08 20.016 22.368 19.812 22.704 19.788L24.108 19.464C24.324 19.416 24.624 19.392 25.008 19.392C25.344 19.392 25.692 19.428 26.052 19.5C26.34 19.308 26.496 19.14 26.52 18.996C26.616 18.588 26.832 18.264 27.168 18.024C27.504 17.784 27.852 17.664 28.212 17.664C28.5 17.664 28.74 17.748 28.932 17.916C29.124 18.06 29.22 18.288 29.22 18.6C29.22 18.744 29.208 18.852 29.184 18.924C29.184 18.948 29.184 18.996 29.184 19.068C29.184 19.116 29.256 19.14 29.4 19.14C29.64 19.14 30.348 19.008 31.524 18.744C31.716 18.72 32.04 18.696 32.496 18.672C32.976 18.624 33.372 18.6 33.684 18.6C34.14 18.6 34.488 18.636 34.728 18.708C34.944 18.66 35.136 18.636 35.304 18.636C35.472 18.636 35.616 18.624 35.736 18.6C36.144 18.6 36.396 18.564 36.492 18.492C36.708 18.54 36.948 18.588 37.212 18.636C37.5 18.66 37.704 18.696 37.824 18.744C37.944 18.792 38.052 18.852 38.148 18.924C38.22 19.02 38.256 19.104 38.256 19.176C38.256 19.248 38.244 19.296 38.22 19.32L38.148 19.284C38.172 19.284 38.208 19.308 38.256 19.356C38.328 19.38 38.4 19.428 38.472 19.5C38.664 19.596 38.76 19.836 38.76 20.22C38.76 20.508 38.712 20.796 38.616 21.084C38.592 21.228 38.532 21.336 38.436 21.408C38.364 21.456 38.172 21.492 37.86 21.516C37.548 21.516 37.14 21.504 36.636 21.48C35.724 21.36 34.968 21.3 34.368 21.3C33.528 21.3 32.232 21.42 30.48 21.66C30.048 21.684 29.64 21.744 29.256 21.84C28.896 21.936 28.668 21.996 28.572 22.02C28.452 22.02 28.272 22.2 28.032 22.56C27.792 22.92 27.576 23.376 27.384 23.928C27.24 24.144 26.796 25.188 26.052 27.06C25.476 28.404 25.188 29.076 25.188 29.076C25.476 29.172 26.028 29.22 26.844 29.22C27.924 29.22 29.496 29.124 31.56 28.932C32.496 28.74 33.132 28.668 33.468 28.716C33.684 28.74 33.864 28.896 34.008 29.184C34.176 29.448 34.26 29.748 34.26 30.084C34.26 30.324 34.212 30.54 34.116 30.732C34.02 30.924 33.888 31.068 33.72 31.164C33.216 31.476 32.172 31.716 30.588 31.884C29.532 31.98 28.08 32.028 26.232 32.028C25.248 32.028 24.66 32.004 24.468 31.956C24.42 31.98 24.348 32.052 24.252 32.172C24.18 32.292 24.144 32.436 24.144 32.604C23.712 33.396 23.1 34.8 22.308 36.816C21.54 38.832 21.156 40.056 21.156 40.488C20.988 40.92 20.856 41.412 20.76 41.964C20.736 42.06 20.7 42.192 20.652 42.36C20.604 42.528 20.556 42.636 20.508 42.684C20.436 43.044 20.196 43.224 19.788 43.224C19.452 43.224 19.188 43.116 18.996 42.9ZM37.1144 41.748C36.8264 41.748 36.5984 41.7 36.4304 41.604C36.2624 41.508 36.0224 41.328 35.7104 41.064C35.2304 40.56 34.8584 40.044 34.5944 39.516C34.3304 38.964 34.2344 38.484 34.3064 38.076C34.3784 37.908 34.4024 37.74 34.3784 37.572C34.3784 37.404 34.3784 37.296 34.3784 37.248C34.2824 37.152 34.2344 37.092 34.2344 37.068C34.2344 37.02 34.2584 36.984 34.3064 36.96C34.3544 36.912 34.3904 36.864 34.4144 36.816C34.5584 36.816 34.6064 36.684 34.5584 36.42C34.5104 36.228 34.5944 35.808 34.8104 35.16C35.0264 34.512 35.3024 33.912 35.6384 33.36C35.9024 32.928 36.2864 32.388 36.7904 31.74C37.3184 31.092 37.7864 30.6 38.1944 30.264C39.3944 29.232 40.4744 28.608 41.4344 28.392C41.9144 28.272 42.3824 28.212 42.8384 28.212C43.5344 28.212 44.0744 28.404 44.4584 28.788C44.9864 29.004 45.3704 29.316 45.6104 29.724C45.8504 30.132 46.0064 30.672 46.0784 31.344C46.1024 31.488 46.1144 31.728 46.1144 32.064C46.1144 33.84 45.4424 35.688 44.0984 37.608C43.5464 38.4 42.9944 39.036 42.4424 39.516C41.8904 39.996 41.2184 40.476 40.4264 40.956C39.9944 41.244 39.5384 41.436 39.0584 41.532C38.5784 41.628 37.9304 41.7 37.1144 41.748ZM40.7864 37.356C41.2424 36.948 41.5664 36.54 41.7584 36.132C41.9744 35.7 42.2744 34.956 42.6584 33.9C42.8024 33.684 42.8744 33.252 42.8744 32.604C42.8744 32.028 42.7904 31.704 42.6224 31.632C42.5024 31.536 42.3584 31.488 42.1904 31.488C41.9744 31.488 41.6264 31.656 41.1464 31.992C40.3064 32.712 39.5984 33.468 39.0224 34.26C38.4704 35.028 38.0864 35.916 37.8704 36.924C37.8464 37.02 37.8344 37.164 37.8344 37.356C37.8344 38.172 38.1224 38.58 38.6984 38.58C39.2504 38.58 39.9464 38.172 40.7864 37.356ZM51.1294 41.712C51.0094 41.736 50.8534 41.748 50.6614 41.748C50.3494 41.748 50.0974 41.7 49.9054 41.604C49.7134 41.484 49.4854 41.292 49.2214 41.028C48.6694 40.764 48.1894 40.32 47.7814 39.696C47.3734 39.072 47.1934 38.58 47.2414 38.22C47.3614 37.068 47.6854 35.82 48.2134 34.476C48.7414 33.108 49.4254 31.884 50.2654 30.804C51.1294 29.7 52.0414 28.932 53.0014 28.5C53.4334 28.332 53.8294 28.248 54.1894 28.248C54.9334 28.248 55.4254 28.488 55.6654 28.968C55.8334 29.304 55.9174 29.556 55.9174 29.724C55.9174 30.012 55.7494 30.204 55.4134 30.3C55.3414 30.3 55.2574 30.336 55.1614 30.408C55.0654 30.48 55.0174 30.552 55.0174 30.624C55.0414 30.648 55.1494 30.66 55.3414 30.66C55.7494 30.66 56.2534 30.6 56.8534 30.48C57.4534 30.36 57.8374 30.228 58.0054 30.084C58.1494 30.012 58.2694 29.976 58.3654 29.976L58.8694 30.048C59.2774 30.168 59.4814 30.312 59.4814 30.48C59.4814 30.6 59.5174 30.756 59.5894 30.948C59.6854 31.14 59.7694 31.236 59.8414 31.236C59.9614 31.236 60.0214 31.32 60.0214 31.488C60.0214 31.632 59.9374 31.824 59.7694 32.064C59.6254 32.28 59.4094 32.496 59.1214 32.712C59.0014 32.784 58.8214 32.892 58.5814 33.036C58.3654 33.18 58.2334 33.3 58.1854 33.396C58.1614 33.492 58.1734 33.624 58.2214 33.792C58.3174 33.984 58.3654 34.224 58.3654 34.512C58.3654 35.328 57.9694 36.288 57.1774 37.392C56.3854 38.472 55.4134 39.432 54.2614 40.272C53.1334 41.112 52.0894 41.592 51.1294 41.712ZM51.2374 38.688C51.3814 38.688 51.7414 38.544 52.3174 38.256C52.6294 37.944 52.8814 37.752 53.0734 37.68C53.1454 37.68 53.2054 37.62 53.2534 37.5C53.3254 37.356 53.4334 37.152 53.5774 36.888C53.7454 36.6 54.0094 36.228 54.3694 35.772C54.7534 35.34 55.0174 34.992 55.1614 34.728C55.3294 34.464 55.4134 34.2 55.4134 33.936C55.4134 33.84 55.3894 33.672 55.3414 33.432C55.3174 33.36 55.2334 33.3 55.0894 33.252C54.9694 33.18 54.8494 33.12 54.7294 33.072C54.6094 33.072 54.4894 33.108 54.3694 33.18C54.2494 33.228 54.1654 33.252 54.1174 33.252C53.9974 33.252 53.8654 33.192 53.7214 33.072L53.1454 32.352L52.5334 32.964C51.9814 33.516 51.5134 34.26 51.1294 35.196C50.7694 36.132 50.5534 36.984 50.4814 37.752C50.4574 38.088 50.5054 38.328 50.6254 38.472C50.7694 38.592 50.9734 38.664 51.2374 38.688ZM70.6163 42.684C70.3043 42.756 70.0043 42.684 69.7163 42.468C69.4283 42.252 69.2123 42 69.0683 41.712C68.9483 41.376 68.8643 41.052 68.8163 40.74C68.7683 40.404 68.7323 39.96 68.7083 39.408L68.6723 38.184L67.1963 39.516C65.6843 40.932 64.2803 41.64 62.9843 41.64C62.6003 41.568 62.1083 41.244 61.5083 40.668C60.9323 40.092 60.5603 39.6 60.3923 39.192C60.2963 39 60.2483 38.7 60.2483 38.292C60.2483 37.38 60.4883 36.288 60.9683 35.016C61.4483 33.72 62.0483 32.676 62.7683 31.884C63.2963 31.092 63.9323 30.492 64.6763 30.084C65.4203 29.676 66.1763 29.472 66.9443 29.472C67.6643 29.472 68.3003 29.628 68.8523 29.94C69.1883 30.108 69.4643 30.192 69.6803 30.192C69.9203 30.192 70.0763 30.036 70.1483 29.724C70.1723 29.604 70.3163 29.124 70.5803 28.284L70.9763 27.132C71.5043 25.548 71.9603 24.276 72.3443 23.316C72.7283 22.356 73.1963 21.3 73.7483 20.148C73.9883 19.644 74.2403 19.272 74.5043 19.032C74.7683 18.792 75.0083 18.684 75.2243 18.708C75.5363 18.708 75.8723 18.816 76.2323 19.032C76.6163 19.224 76.8683 19.476 76.9883 19.788C77.0603 19.956 77.0963 20.16 77.0963 20.4C77.0963 20.664 77.0243 20.94 76.8803 21.228C76.2563 22.308 75.4883 24.072 74.5763 26.52C73.6643 28.968 72.9563 31.092 72.4523 32.892C72.2603 33.54 72.1163 34.44 72.0203 35.592C71.9483 36.744 71.9123 37.872 71.9123 38.976C71.9123 40.032 71.9483 40.692 72.0203 40.956C72.0683 41.1 72.0923 41.292 72.0923 41.532C72.0923 41.94 71.9483 42.216 71.6603 42.36C71.3963 42.528 71.0483 42.636 70.6163 42.684ZM64.6763 38.328C65.2283 38.112 65.8403 37.752 66.5123 37.248C67.2323 36.72 67.7483 36.252 68.0603 35.844C68.3963 35.436 68.6603 34.92 68.8523 34.296C68.9003 34.176 68.9243 34.008 68.9243 33.792C68.9243 33.36 68.7203 32.964 68.3123 32.604C68.0723 32.412 67.7963 32.316 67.4843 32.316C66.9803 32.316 66.4523 32.58 65.9003 33.108C65.2763 33.684 64.7723 34.332 64.3883 35.052C64.0043 35.748 63.6803 36.708 63.4163 37.932C63.3683 38.1 63.3923 38.244 63.4883 38.364C63.5843 38.46 63.7403 38.508 63.9563 38.508C64.1243 38.508 64.3643 38.448 64.6763 38.328ZM81.2487 27.024C80.9607 27.024 80.6127 26.892 80.2047 26.628C79.7967 26.364 79.4367 26.028 79.1247 25.62C78.8367 25.188 78.6927 24.756 78.6927 24.324C78.6927 24.18 78.9447 23.736 79.4487 22.992C79.7847 22.536 79.9527 22.26 79.9527 22.164C80.1207 22.164 80.3367 22.2 80.6007 22.272C80.8647 22.344 81.0927 22.428 81.2847 22.524C81.4287 22.86 81.7167 23.292 82.1487 23.82C82.4367 24.18 82.6407 24.48 82.7607 24.72C82.9047 24.96 82.9767 25.212 82.9767 25.476C82.9767 26.004 82.8327 26.4 82.5447 26.664C82.2807 26.904 81.8487 27.024 81.2487 27.024ZM76.3527 40.812C76.2807 40.812 76.1007 40.752 75.8127 40.632C75.5487 40.512 75.3687 40.428 75.2727 40.38C75.2727 40.308 75.2367 40.188 75.1647 40.02C75.1167 39.828 75.0927 39.708 75.0927 39.66C74.8767 39.564 74.6967 39.408 74.5527 39.192C74.4327 38.952 74.4087 38.712 74.4807 38.472C74.8167 37.896 75.4167 36.576 76.2807 34.512C77.1687 32.424 77.6607 31.224 77.7567 30.912C77.7567 30.384 77.9247 30.012 78.2607 29.796C78.4287 29.676 78.5967 29.616 78.7647 29.616C79.1727 29.616 79.5567 29.892 79.9167 30.444C80.2767 30.996 80.4567 31.644 80.4567 32.388C80.4567 32.676 80.1807 33.504 79.6287 34.872C79.1007 36.216 78.5007 37.572 77.8287 38.94C77.4447 39.708 77.1567 40.212 76.9647 40.452C76.7967 40.692 76.5927 40.812 76.3527 40.812ZM86.7311 42C85.3631 42 84.2591 41.616 83.4191 40.848C82.5791 40.08 82.1591 38.988 82.1591 37.572C82.1591 37.02 82.1951 36.408 82.2671 35.736C82.3151 35.16 82.5431 34.368 82.9511 33.36C83.3831 32.352 83.9591 31.368 84.6791 30.408C85.4231 29.448 86.2871 28.74 87.2711 28.284C87.7271 28.068 88.1111 27.924 88.4231 27.852C88.7351 27.756 89.0951 27.708 89.5031 27.708C90.4871 27.708 91.2791 27.888 91.8791 28.248C92.5031 28.608 92.9351 29.016 93.1751 29.472C93.4391 29.928 93.5711 30.324 93.5711 30.66V30.84V30.948C93.5711 31.236 93.4031 31.764 93.0671 32.532C92.7311 33.3 92.1911 34.02 91.4471 34.692C90.7271 35.364 89.7911 35.736 88.6391 35.808C88.0631 35.808 87.4991 35.76 86.9471 35.664C86.4191 35.544 86.0831 35.484 85.9391 35.484C85.5791 35.484 85.3511 35.616 85.2551 35.88C85.1591 36.144 85.1111 36.588 85.1111 37.212C85.1831 37.884 85.3631 38.352 85.6511 38.616C85.9631 38.88 86.4071 39.012 86.9831 39.012C87.2711 39.012 87.6071 38.928 87.9911 38.76C88.3751 38.568 88.8311 38.268 89.3591 37.86C89.6471 37.62 89.8751 37.452 90.0431 37.356C90.2111 37.26 90.4151 37.212 90.6551 37.212C90.8711 37.212 91.1231 37.356 91.4111 37.644C91.6991 37.932 91.8551 38.208 91.8791 38.472C91.8311 38.76 91.5671 39.192 91.0871 39.768C90.6071 40.344 89.9831 40.86 89.2151 41.316C88.4471 41.772 87.6191 42 86.7311 42ZM87.9911 33.324C88.4471 33.324 88.7591 33.276 88.9271 33.18C89.1671 33.06 89.5271 32.76 90.0071 32.28C90.5111 31.776 90.7751 31.428 90.7991 31.236C90.7991 30.996 90.6911 30.804 90.4751 30.66C90.2831 30.492 90.0071 30.384 89.6471 30.336H89.2511C88.9391 30.336 88.4831 30.6 87.8831 31.128C87.3071 31.632 86.8031 32.22 86.3711 32.892C86.3951 33.012 86.5751 33.12 86.9111 33.216C87.2471 33.288 87.6071 33.324 87.9911 33.324ZM97.7106 42.216C96.9666 42.216 96.2706 42.048 95.6226 41.712C94.9746 41.376 94.4586 40.956 94.0746 40.452C93.6906 39.924 93.4986 39.408 93.4986 38.904C93.4986 38.496 93.6666 38.292 94.0026 38.292C94.2186 38.34 94.4706 38.472 94.7586 38.688C95.1186 38.904 95.4186 39.072 95.6586 39.192C95.9226 39.312 96.1866 39.372 96.4506 39.372C96.8586 39.372 97.2066 39.312 97.4946 39.192C97.8066 39.048 97.9866 38.844 98.0346 38.58C98.0346 38.484 97.9866 38.28 97.8906 37.968C97.7946 37.632 97.6746 37.332 97.5306 37.068C97.0026 36.276 96.6426 35.508 96.4506 34.764C96.2826 33.996 96.1746 33.108 96.1266 32.1C96.1266 31.548 96.5226 30.888 97.3146 30.12C98.1306 29.352 99.0666 28.668 100.123 28.068C101.203 27.468 102.079 27.132 102.751 27.06C104.071 27.06 104.863 27.168 105.127 27.384C105.463 27.648 105.775 28.08 106.063 28.68C106.351 29.28 106.495 29.784 106.495 30.192C106.495 30.36 106.411 30.576 106.243 30.84C106.099 31.08 106.003 31.236 105.955 31.308L105.631 31.812L105.379 32.352C105.331 32.472 105.247 32.652 105.127 32.892C105.031 33.132 104.935 33.276 104.839 33.324C104.767 33.372 104.647 33.384 104.479 33.36C104.071 33.36 103.699 33.18 103.363 32.82C103.027 32.46 102.859 32.064 102.859 31.632C102.859 31.32 102.967 31.008 103.183 30.696C103.399 30.384 103.507 30.204 103.507 30.156C103.507 30.06 103.399 30.012 103.183 30.012C102.871 30.012 102.391 30.168 101.743 30.48C101.095 30.792 100.519 31.212 100.015 31.74C99.5106 32.244 99.2586 32.808 99.2586 33.432C99.2586 33.768 99.3186 34.164 99.4386 34.62C99.5826 35.052 99.7386 35.412 99.9066 35.7C100.099 35.892 100.375 36.468 100.735 37.428C101.119 38.364 101.311 39.108 101.311 39.66C101.311 40.5 100.987 41.136 100.339 41.568C99.7146 42 98.8386 42.216 97.7106 42.216Z" fill="white"/>
<path d="M18.0008 0.587957C16.4793 3.07332 14.0215 4.68975 11.6951 6.41467C10.5599 7.25786 9.45529 8.12709 8.50947 9.13598C8.30432 9.35445 8.10464 9.58234 7.915 9.81689C7.35048 10.5118 6.86183 11.2785 6.48342 12.144C6.12724 12.9561 5.93233 13.7876 5.84823 14.627C5.71538 15.9665 5.87139 17.3298 6.13616 18.6866C6.61314 21.1524 7.54899 23.525 8.86716 25.6613C9.40194 26.5277 9.9453 27.436 10.6601 28.1703C10.819 28.3317 11.0052 28.5461 11.2341 28.6014C11.5333 28.6756 11.7682 28.2867 11.5352 28.0619C9.87946 26.4832 8.94306 24.0608 8.66508 21.799C8.34491 19.1988 9.33848 16.9684 10.992 15.0038C11.4311 14.4814 11.8968 13.978 12.3772 13.4786C12.3863 13.4672 12.398 13.4604 12.4097 13.4537C12.5246 13.3873 12.6712 13.5276 12.5828 13.6506C12.0804 14.3502 11.5841 15.0495 11.1354 15.7556C8.93754 19.213 9.77056 23.8268 10.9495 23.1458C11.0456 23.0903 11.1432 22.9996 11.241 22.8712C12.6253 21.0684 14.7823 19.8132 16.5678 18.2882C17.1965 17.7532 17.7794 17.1821 18.2673 16.544C20.2028 14.007 20.8243 10.8725 20.4637 7.7425C20.1935 5.40741 19.2337 3.02042 18.7246 0.726356C18.6608 0.431879 18.3618 0.320137 18.1462 0.444677C18.091 0.473395 18.0405 0.521323 18.0008 0.587957Z" fill="#1DCF5C"/>
</svg>
