<svg width="129" height="64" viewBox="0 0 129 64" fill="none" xmlns="http://www.w3.org/2000/svg">
<path d="M29.996 48.9C29.18 48.516 28.772 47.94 28.772 47.172C28.772 46.932 28.808 46.692 28.88 46.452C29.072 45.588 29.42 44.352 29.924 42.744C30.452 41.136 30.92 39.924 31.328 39.108C31.496 38.82 31.628 38.52 31.724 38.208C31.82 37.896 31.88 37.692 31.904 37.596C32.024 37.164 32.096 36.912 32.12 36.84L32.084 36.48C32.084 36.384 32.108 36.288 32.156 36.192C32.204 36.096 32.288 35.988 32.408 35.868C32.744 35.58 33.104 35.016 33.488 34.176L34.856 30.252L35.288 29.028C35.312 28.932 35.36 28.764 35.432 28.524C35.504 28.284 35.54 28.116 35.54 28.02C35.54 27.924 35.516 27.876 35.468 27.876C35.276 27.924 34.892 27.96 34.316 27.984C34.028 28.032 33.812 28.068 33.668 28.092C33.524 28.092 33.416 28.104 33.344 28.128H33.092C32.636 28.128 32.408 27.96 32.408 27.624C32.48 27.192 32.624 26.784 32.84 26.4C33.08 26.016 33.368 25.812 33.704 25.788L35.108 25.464C35.324 25.416 35.624 25.392 36.008 25.392C36.344 25.392 36.692 25.428 37.052 25.5C37.34 25.308 37.496 25.14 37.52 24.996C37.616 24.588 37.832 24.264 38.168 24.024C38.504 23.784 38.852 23.664 39.212 23.664C39.5 23.664 39.74 23.748 39.932 23.916C40.124 24.06 40.22 24.288 40.22 24.6C40.22 24.744 40.208 24.852 40.184 24.924C40.184 24.948 40.184 24.996 40.184 25.068C40.184 25.116 40.256 25.14 40.4 25.14C40.64 25.14 41.348 25.008 42.524 24.744C42.716 24.72 43.04 24.696 43.496 24.672C43.976 24.624 44.372 24.6 44.684 24.6C45.14 24.6 45.488 24.636 45.728 24.708C45.944 24.66 46.136 24.636 46.304 24.636C46.472 24.636 46.616 24.624 46.736 24.6C47.144 24.6 47.396 24.564 47.492 24.492C47.708 24.54 47.948 24.588 48.212 24.636C48.5 24.66 48.704 24.696 48.824 24.744C48.944 24.792 49.052 24.852 49.148 24.924C49.22 25.02 49.256 25.104 49.256 25.176C49.256 25.248 49.244 25.296 49.22 25.32L49.148 25.284C49.172 25.284 49.208 25.308 49.256 25.356C49.328 25.38 49.4 25.428 49.472 25.5C49.664 25.596 49.76 25.836 49.76 26.22C49.76 26.508 49.712 26.796 49.616 27.084C49.592 27.228 49.532 27.336 49.436 27.408C49.364 27.456 49.172 27.492 48.86 27.516C48.548 27.516 48.14 27.504 47.636 27.48C46.724 27.36 45.968 27.3 45.368 27.3C44.528 27.3 43.232 27.42 41.48 27.66C41.048 27.684 40.64 27.744 40.256 27.84C39.896 27.936 39.668 27.996 39.572 28.02C39.452 28.02 39.272 28.2 39.032 28.56C38.792 28.92 38.576 29.376 38.384 29.928C38.24 30.144 37.796 31.188 37.052 33.06C36.476 34.404 36.188 35.076 36.188 35.076C36.476 35.172 37.028 35.22 37.844 35.22C38.924 35.22 40.496 35.124 42.56 34.932C43.496 34.74 44.132 34.668 44.468 34.716C44.684 34.74 44.864 34.896 45.008 35.184C45.176 35.448 45.26 35.748 45.26 36.084C45.26 36.324 45.212 36.54 45.116 36.732C45.02 36.924 44.888 37.068 44.72 37.164C44.216 37.476 43.172 37.716 41.588 37.884C40.532 37.98 39.08 38.028 37.232 38.028C36.248 38.028 35.66 38.004 35.468 37.956C35.42 37.98 35.348 38.052 35.252 38.172C35.18 38.292 35.144 38.436 35.144 38.604C34.712 39.396 34.1 40.8 33.308 42.816C32.54 44.832 32.156 46.056 32.156 46.488C31.988 46.92 31.856 47.412 31.76 47.964C31.736 48.06 31.7 48.192 31.652 48.36C31.604 48.528 31.556 48.636 31.508 48.684C31.436 49.044 31.196 49.224 30.788 49.224C30.452 49.224 30.188 49.116 29.996 48.9ZM48.1144 47.748C47.8264 47.748 47.5984 47.7 47.4304 47.604C47.2624 47.508 47.0224 47.328 46.7104 47.064C46.2304 46.56 45.8584 46.044 45.5944 45.516C45.3304 44.964 45.2344 44.484 45.3064 44.076C45.3784 43.908 45.4024 43.74 45.3784 43.572C45.3784 43.404 45.3784 43.296 45.3784 43.248C45.2824 43.152 45.2344 43.092 45.2344 43.068C45.2344 43.02 45.2584 42.984 45.3064 42.96C45.3544 42.912 45.3904 42.864 45.4144 42.816C45.5584 42.816 45.6064 42.684 45.5584 42.42C45.5104 42.228 45.5944 41.808 45.8104 41.16C46.0264 40.512 46.3024 39.912 46.6384 39.36C46.9024 38.928 47.2864 38.388 47.7904 37.74C48.3184 37.092 48.7864 36.6 49.1944 36.264C50.3944 35.232 51.4744 34.608 52.4344 34.392C52.9144 34.272 53.3824 34.212 53.8384 34.212C54.5344 34.212 55.0744 34.404 55.4584 34.788C55.9864 35.004 56.3704 35.316 56.6104 35.724C56.8504 36.132 57.0064 36.672 57.0784 37.344C57.1024 37.488 57.1144 37.728 57.1144 38.064C57.1144 39.84 56.4424 41.688 55.0984 43.608C54.5464 44.4 53.9944 45.036 53.4424 45.516C52.8904 45.996 52.2184 46.476 51.4264 46.956C50.9944 47.244 50.5384 47.436 50.0584 47.532C49.5784 47.628 48.9304 47.7 48.1144 47.748ZM51.7864 43.356C52.2424 42.948 52.5664 42.54 52.7584 42.132C52.9744 41.7 53.2744 40.956 53.6584 39.9C53.8024 39.684 53.8744 39.252 53.8744 38.604C53.8744 38.028 53.7904 37.704 53.6224 37.632C53.5024 37.536 53.3584 37.488 53.1904 37.488C52.9744 37.488 52.6264 37.656 52.1464 37.992C51.3064 38.712 50.5984 39.468 50.0224 40.26C49.4704 41.028 49.0864 41.916 48.8704 42.924C48.8464 43.02 48.8344 43.164 48.8344 43.356C48.8344 44.172 49.1224 44.58 49.6984 44.58C50.2504 44.58 50.9464 44.172 51.7864 43.356ZM62.1294 47.712C62.0094 47.736 61.8534 47.748 61.6614 47.748C61.3494 47.748 61.0974 47.7 60.9054 47.604C60.7134 47.484 60.4854 47.292 60.2214 47.028C59.6694 46.764 59.1894 46.32 58.7814 45.696C58.3734 45.072 58.1934 44.58 58.2414 44.22C58.3614 43.068 58.6854 41.82 59.2134 40.476C59.7414 39.108 60.4254 37.884 61.2654 36.804C62.1294 35.7 63.0414 34.932 64.0014 34.5C64.4334 34.332 64.8294 34.248 65.1894 34.248C65.9334 34.248 66.4254 34.488 66.6654 34.968C66.8334 35.304 66.9174 35.556 66.9174 35.724C66.9174 36.012 66.7494 36.204 66.4134 36.3C66.3414 36.3 66.2574 36.336 66.1614 36.408C66.0654 36.48 66.0174 36.552 66.0174 36.624C66.0414 36.648 66.1494 36.66 66.3414 36.66C66.7494 36.66 67.2534 36.6 67.8534 36.48C68.4534 36.36 68.8374 36.228 69.0054 36.084C69.1494 36.012 69.2694 35.976 69.3654 35.976L69.8694 36.048C70.2774 36.168 70.4814 36.312 70.4814 36.48C70.4814 36.6 70.5174 36.756 70.5894 36.948C70.6854 37.14 70.7694 37.236 70.8414 37.236C70.9614 37.236 71.0214 37.32 71.0214 37.488C71.0214 37.632 70.9374 37.824 70.7694 38.064C70.6254 38.28 70.4094 38.496 70.1214 38.712C70.0014 38.784 69.8214 38.892 69.5814 39.036C69.3654 39.18 69.2334 39.3 69.1854 39.396C69.1614 39.492 69.1734 39.624 69.2214 39.792C69.3174 39.984 69.3654 40.224 69.3654 40.512C69.3654 41.328 68.9694 42.288 68.1774 43.392C67.3854 44.472 66.4134 45.432 65.2614 46.272C64.1334 47.112 63.0894 47.592 62.1294 47.712ZM62.2374 44.688C62.3814 44.688 62.7414 44.544 63.3174 44.256C63.6294 43.944 63.8814 43.752 64.0734 43.68C64.1454 43.68 64.2054 43.62 64.2534 43.5C64.3254 43.356 64.4334 43.152 64.5774 42.888C64.7454 42.6 65.0094 42.228 65.3694 41.772C65.7534 41.34 66.0174 40.992 66.1614 40.728C66.3294 40.464 66.4134 40.2 66.4134 39.936C66.4134 39.84 66.3894 39.672 66.3414 39.432C66.3174 39.36 66.2334 39.3 66.0894 39.252C65.9694 39.18 65.8494 39.12 65.7294 39.072C65.6094 39.072 65.4894 39.108 65.3694 39.18C65.2494 39.228 65.1654 39.252 65.1174 39.252C64.9974 39.252 64.8654 39.192 64.7214 39.072L64.1454 38.352L63.5334 38.964C62.9814 39.516 62.5134 40.26 62.1294 41.196C61.7694 42.132 61.5534 42.984 61.4814 43.752C61.4574 44.088 61.5054 44.328 61.6254 44.472C61.7694 44.592 61.9734 44.664 62.2374 44.688ZM81.6163 48.684C81.3043 48.756 81.0043 48.684 80.7163 48.468C80.4283 48.252 80.2123 48 80.0683 47.712C79.9483 47.376 79.8643 47.052 79.8163 46.74C79.7683 46.404 79.7323 45.96 79.7083 45.408L79.6723 44.184L78.1963 45.516C76.6843 46.932 75.2803 47.64 73.9843 47.64C73.6003 47.568 73.1083 47.244 72.5083 46.668C71.9323 46.092 71.5603 45.6 71.3923 45.192C71.2963 45 71.2483 44.7 71.2483 44.292C71.2483 43.38 71.4883 42.288 71.9683 41.016C72.4483 39.72 73.0483 38.676 73.7683 37.884C74.2963 37.092 74.9323 36.492 75.6763 36.084C76.4203 35.676 77.1763 35.472 77.9443 35.472C78.6643 35.472 79.3003 35.628 79.8523 35.94C80.1883 36.108 80.4643 36.192 80.6803 36.192C80.9203 36.192 81.0763 36.036 81.1483 35.724C81.1723 35.604 81.3163 35.124 81.5803 34.284L81.9763 33.132C82.5043 31.548 82.9603 30.276 83.3443 29.316C83.7283 28.356 84.1963 27.3 84.7483 26.148C84.9883 25.644 85.2403 25.272 85.5043 25.032C85.7683 24.792 86.0083 24.684 86.2243 24.708C86.5363 24.708 86.8723 24.816 87.2323 25.032C87.6163 25.224 87.8683 25.476 87.9883 25.788C88.0603 25.956 88.0963 26.16 88.0963 26.4C88.0963 26.664 88.0243 26.94 87.8803 27.228C87.2563 28.308 86.4883 30.072 85.5763 32.52C84.6643 34.968 83.9563 37.092 83.4523 38.892C83.2603 39.54 83.1163 40.44 83.0203 41.592C82.9483 42.744 82.9123 43.872 82.9123 44.976C82.9123 46.032 82.9483 46.692 83.0203 46.956C83.0683 47.1 83.0923 47.292 83.0923 47.532C83.0923 47.94 82.9483 48.216 82.6603 48.36C82.3963 48.528 82.0483 48.636 81.6163 48.684ZM75.6763 44.328C76.2283 44.112 76.8403 43.752 77.5123 43.248C78.2323 42.72 78.7483 42.252 79.0603 41.844C79.3963 41.436 79.6603 40.92 79.8523 40.296C79.9003 40.176 79.9243 40.008 79.9243 39.792C79.9243 39.36 79.7203 38.964 79.3123 38.604C79.0723 38.412 78.7963 38.316 78.4843 38.316C77.9803 38.316 77.4523 38.58 76.9003 39.108C76.2763 39.684 75.7723 40.332 75.3883 41.052C75.0043 41.748 74.6803 42.708 74.4163 43.932C74.3683 44.1 74.3923 44.244 74.4883 44.364C74.5843 44.46 74.7403 44.508 74.9563 44.508C75.1243 44.508 75.3643 44.448 75.6763 44.328ZM92.2487 33.024C91.9607 33.024 91.6127 32.892 91.2047 32.628C90.7967 32.364 90.4367 32.028 90.1247 31.62C89.8367 31.188 89.6927 30.756 89.6927 30.324C89.6927 30.18 89.9447 29.736 90.4487 28.992C90.7847 28.536 90.9527 28.26 90.9527 28.164C91.1207 28.164 91.3367 28.2 91.6007 28.272C91.8647 28.344 92.0927 28.428 92.2847 28.524C92.4287 28.86 92.7167 29.292 93.1487 29.82C93.4367 30.18 93.6407 30.48 93.7607 30.72C93.9047 30.96 93.9767 31.212 93.9767 31.476C93.9767 32.004 93.8327 32.4 93.5447 32.664C93.2807 32.904 92.8487 33.024 92.2487 33.024ZM87.3527 46.812C87.2807 46.812 87.1007 46.752 86.8127 46.632C86.5487 46.512 86.3687 46.428 86.2727 46.38C86.2727 46.308 86.2367 46.188 86.1647 46.02C86.1167 45.828 86.0927 45.708 86.0927 45.66C85.8767 45.564 85.6967 45.408 85.5527 45.192C85.4327 44.952 85.4087 44.712 85.4807 44.472C85.8167 43.896 86.4167 42.576 87.2807 40.512C88.1687 38.424 88.6607 37.224 88.7567 36.912C88.7567 36.384 88.9247 36.012 89.2607 35.796C89.4287 35.676 89.5967 35.616 89.7647 35.616C90.1727 35.616 90.5567 35.892 90.9167 36.444C91.2767 36.996 91.4567 37.644 91.4567 38.388C91.4567 38.676 91.1807 39.504 90.6287 40.872C90.1007 42.216 89.5007 43.572 88.8287 44.94C88.4447 45.708 88.1567 46.212 87.9647 46.452C87.7967 46.692 87.5927 46.812 87.3527 46.812ZM97.7311 48C96.3631 48 95.2591 47.616 94.4191 46.848C93.5791 46.08 93.1591 44.988 93.1591 43.572C93.1591 43.02 93.1951 42.408 93.2671 41.736C93.3151 41.16 93.5431 40.368 93.9511 39.36C94.3831 38.352 94.9591 37.368 95.6791 36.408C96.4231 35.448 97.2871 34.74 98.2711 34.284C98.7271 34.068 99.1111 33.924 99.4231 33.852C99.7351 33.756 100.095 33.708 100.503 33.708C101.487 33.708 102.279 33.888 102.879 34.248C103.503 34.608 103.935 35.016 104.175 35.472C104.439 35.928 104.571 36.324 104.571 36.66V36.84V36.948C104.571 37.236 104.403 37.764 104.067 38.532C103.731 39.3 103.191 40.02 102.447 40.692C101.727 41.364 100.791 41.736 99.6391 41.808C99.0631 41.808 98.4991 41.76 97.9471 41.664C97.4191 41.544 97.0831 41.484 96.9391 41.484C96.5791 41.484 96.3511 41.616 96.2551 41.88C96.1591 42.144 96.1111 42.588 96.1111 43.212C96.1831 43.884 96.3631 44.352 96.6511 44.616C96.9631 44.88 97.4071 45.012 97.9831 45.012C98.2711 45.012 98.6071 44.928 98.9911 44.76C99.3751 44.568 99.8311 44.268 100.359 43.86C100.647 43.62 100.875 43.452 101.043 43.356C101.211 43.26 101.415 43.212 101.655 43.212C101.871 43.212 102.123 43.356 102.411 43.644C102.699 43.932 102.855 44.208 102.879 44.472C102.831 44.76 102.567 45.192 102.087 45.768C101.607 46.344 100.983 46.86 100.215 47.316C99.4471 47.772 98.6191 48 97.7311 48ZM98.9911 39.324C99.4471 39.324 99.7591 39.276 99.9271 39.18C100.167 39.06 100.527 38.76 101.007 38.28C101.511 37.776 101.775 37.428 101.799 37.236C101.799 36.996 101.691 36.804 101.475 36.66C101.283 36.492 101.007 36.384 100.647 36.336H100.251C99.9391 36.336 99.4831 36.6 98.8831 37.128C98.3071 37.632 97.8031 38.22 97.3711 38.892C97.3951 39.012 97.5751 39.12 97.9111 39.216C98.2471 39.288 98.6071 39.324 98.9911 39.324ZM108.711 48.216C107.967 48.216 107.271 48.048 106.623 47.712C105.975 47.376 105.459 46.956 105.075 46.452C104.691 45.924 104.499 45.408 104.499 44.904C104.499 44.496 104.667 44.292 105.003 44.292C105.219 44.34 105.471 44.472 105.759 44.688C106.119 44.904 106.419 45.072 106.659 45.192C106.923 45.312 107.187 45.372 107.451 45.372C107.859 45.372 108.207 45.312 108.495 45.192C108.807 45.048 108.987 44.844 109.035 44.58C109.035 44.484 108.987 44.28 108.891 43.968C108.795 43.632 108.675 43.332 108.531 43.068C108.003 42.276 107.643 41.508 107.451 40.764C107.283 39.996 107.175 39.108 107.127 38.1C107.127 37.548 107.523 36.888 108.315 36.12C109.131 35.352 110.067 34.668 111.123 34.068C112.203 33.468 113.079 33.132 113.751 33.06C115.071 33.06 115.863 33.168 116.127 33.384C116.463 33.648 116.775 34.08 117.063 34.68C117.351 35.28 117.495 35.784 117.495 36.192C117.495 36.36 117.411 36.576 117.243 36.84C117.099 37.08 117.003 37.236 116.955 37.308L116.631 37.812L116.379 38.352C116.331 38.472 116.247 38.652 116.127 38.892C116.031 39.132 115.935 39.276 115.839 39.324C115.767 39.372 115.647 39.384 115.479 39.36C115.071 39.36 114.699 39.18 114.363 38.82C114.027 38.46 113.859 38.064 113.859 37.632C113.859 37.32 113.967 37.008 114.183 36.696C114.399 36.384 114.507 36.204 114.507 36.156C114.507 36.06 114.399 36.012 114.183 36.012C113.871 36.012 113.391 36.168 112.743 36.48C112.095 36.792 111.519 37.212 111.015 37.74C110.511 38.244 110.259 38.808 110.259 39.432C110.259 39.768 110.319 40.164 110.439 40.62C110.583 41.052 110.739 41.412 110.907 41.7C111.099 41.892 111.375 42.468 111.735 43.428C112.119 44.364 112.311 45.108 112.311 45.66C112.311 46.5 111.987 47.136 111.339 47.568C110.715 48 109.839 48.216 108.711 48.216Z" fill="#484848"/>
<path d="M15.7245 0.610725C15.1325 4.19757 13.0504 7.21956 11.1712 10.3052C10.2549 11.8127 9.38613 13.3359 8.7665 14.9459C8.63193 15.2948 8.5081 15.6519 8.39901 16.012C8.07269 17.0801 7.86778 18.1957 7.83669 19.3737C7.80619 20.4795 7.97121 21.5321 8.26801 22.5418C8.7432 24.1523 9.56347 25.6549 10.5064 27.0988C12.2151 29.7249 14.4105 32.028 16.9368 33.8784C17.9616 34.6288 19.016 35.4236 20.1868 35.9368C20.4462 36.0488 20.7621 36.2091 21.0527 36.1656C21.4332 36.1109 21.5222 35.5512 21.1473 35.4007C18.4926 34.3532 16.2733 31.9929 14.8903 29.5091C13.2997 26.6541 13.4012 23.6097 14.3902 20.5629C14.6525 19.753 14.9545 18.9525 15.2754 18.1498C15.2804 18.1323 15.2908 18.119 15.3012 18.1057C15.4028 17.9751 15.6382 18.0684 15.5937 18.2521C15.3415 19.2965 15.096 20.3377 14.9089 21.3644C13.9913 26.3922 17.1198 31.334 18.1629 29.9935C18.248 29.8843 18.3182 29.7336 18.3709 29.5393C19.1247 26.8057 21.0287 24.3426 22.3765 21.7418C22.852 20.8283 23.2577 19.8946 23.5221 18.928C24.5684 15.0872 23.8154 11.1726 21.9295 7.72406C20.521 5.15196 18.2913 2.84352 16.626 0.430961C16.414 0.120545 16.016 0.131723 15.8252 0.376888C15.7749 0.436011 15.739 0.515093 15.7245 0.610725Z" fill="#1DCF5C"/>
</svg>
